<svg width="24" height="24" viewBox="0 0 24 24" fill="none" xmlns="http://www.w3.org/2000/svg">
<path d="M8.14648 8.14619C8.34176 7.95097 8.65827 7.95092 8.85351 8.14619C9.04871 8.34145 9.04872 8.65798 8.85351 8.85322L6.70702 10.9987L18.5 10.9997L18.6006 11.0095C18.8285 11.056 19 11.258 19 11.4997C19 11.7414 18.8285 11.9434 18.6006 11.9899L18.5 11.9997L6.70605 11.9987L8.85351 14.1462L8.91796 14.2243C9.0461 14.4184 9.02433 14.6824 8.85351 14.8532C8.68265 15.024 8.41865 15.0458 8.2246 14.9177L8.14648 14.8532L5.14648 11.8522C4.95127 11.657 4.95124 11.3404 5.14648 11.1452L8.14648 8.14619Z" fill="#1B1F24" fill-opacity="0.9"/>
</svg>
